<?xml version="1.0" encoding="UTF-8" standalone="no"?>
<!-- Created with Inkscape (http://www.inkscape.org/) -->

<svg
   xmlns:dc="http://purl.org/dc/elements/1.1/"
   xmlns:cc="http://creativecommons.org/ns#"
   xmlns:rdf="http://www.w3.org/1999/02/22-rdf-syntax-ns#"
   xmlns:svg="http://www.w3.org/2000/svg"
   xmlns="http://www.w3.org/2000/svg"
   xmlns:sodipodi="http://sodipodi.sourceforge.net/DTD/sodipodi-0.dtd"
   xmlns:inkscape="http://www.inkscape.org/namespaces/inkscape"
   width="210mm"
   height="297mm"
   viewBox="0 0 210 297"
   version="1.1"
   id="svg8"
   inkscape:version="0.92.4 (5da689c313, 2019-01-14)"
   sodipodi:docname="うさぎ笑顔表情.svg">
  <defs
     id="defs2" />
  <sodipodi:namedview
     id="base"
     pagecolor="#ffffff"
     bordercolor="#666666"
     borderopacity="1.0"
     inkscape:pageopacity="0.0"
     inkscape:pageshadow="2"
     inkscape:zoom="0.65154512"
     inkscape:cx="452.07807"
     inkscape:cy="625.85921"
     inkscape:document-units="mm"
     inkscape:current-layer="layer1"
     showgrid="false"
     inkscape:snap-global="false" />
  <metadata
     id="metadata5">
    <rdf:RDF>
      <cc:Work
         rdf:about="">
        <dc:format>image/svg+xml</dc:format>
        <dc:type
           rdf:resource="http://purl.org/dc/dcmitype/StillImage" />
        <dc:title></dc:title>
      </cc:Work>
    </rdf:RDF>
  </metadata>
  <g
     inkscape:label="レイヤー 1"
     inkscape:groupmode="layer"
     id="layer1">
    <g
       id="g942"
       transform="translate(-41.420769,40.608597)">
      <g
         transform="translate(46.704957,-29.775704)"
         id="g881">
        <ellipse
           style="opacity:1;fill:#ffffff;fill-opacity:1;stroke:#000000;stroke-width:1.50464606;stroke-linejoin:round;stroke-miterlimit:4;stroke-dasharray:none;stroke-opacity:1"
           id="path817"
           cx="49.40065"
           cy="95.775101"
           rx="12.123165"
           ry="43.359108"
           transform="matrix(0.94471813,-0.3278836,0.22111217,0.97524838,0,0)" />
        <ellipse
           style="opacity:1;fill:#ffffff;fill-opacity:1;stroke:#000000;stroke-width:1.50790632;stroke-linejoin:round;stroke-miterlimit:4;stroke-dasharray:none;stroke-opacity:1"
           id="path817-0"
           cx="154.05257"
           cy="45.983746"
           rx="11.639128"
           ry="29.697748"
           transform="matrix(0.95401366,0.29976314,-0.43424579,0.90079443,0,0)" />
        <ellipse
           style="opacity:1;fill:#ffaaaa;fill-opacity:1;stroke:#000000;stroke-width:0.1881787;stroke-linejoin:round;stroke-miterlimit:4;stroke-dasharray:none;stroke-opacity:1"
           id="path817-7"
           cx="51.260883"
           cy="111.80698"
           rx="9.1132517"
           ry="26.299946"
           transform="matrix(0.98292585,-0.18400208,0.2018098,0.97942473,0,0)" />
        <ellipse
           style="opacity:1;fill:#ffaaaa;fill-opacity:1;stroke:#000000;stroke-width:0.1881787;stroke-linejoin:round;stroke-miterlimit:4;stroke-dasharray:none;stroke-opacity:1"
           id="path817-7-9"
           cx="146.20229"
           cy="61.566219"
           rx="9.1132517"
           ry="26.299946"
           transform="matrix(0.94141348,0.3372546,-0.3201144,0.9473789,0,0)" />
        <ellipse
           style="opacity:1;fill:#ffffff;fill-opacity:1;stroke:#000000;stroke-width:1.5;stroke-linejoin:round;stroke-miterlimit:4;stroke-dasharray:none;stroke-opacity:1"
           id="path815"
           cx="100.1637"
           cy="143.54167"
           rx="56.318451"
           ry="41.955357" />
        <ellipse
           style="opacity:1;fill:#ffffff;fill-opacity:1;stroke:#000000;stroke-width:1.50001144;stroke-linejoin:round;stroke-miterlimit:4;stroke-dasharray:none;stroke-opacity:1"
           id="path817-2"
           cx="-108.71558"
           cy="-134.32875"
           rx="10.931309"
           ry="32.392998"
           transform="matrix(-0.94553761,0.32551286,-0.33073377,-0.9437241,0,0)" />
      </g>
      <g
         transform="translate(-3.2486877,-0.81217193)"
         id="g926">
        <g
           id="g914"
           transform="translate(4.5412388)">
          <path
             inkscape:connector-curvature="0"
             id="path861"
             d="m 124.73686,85.265755 a 15.900612,20.333201 0 0 0 -1.58612,0.133939 15.900612,20.333201 0 0 0 -13.85101,17.062446 h 4.78705 a 11.607446,19.581158 0 0 1 9.57412,-12.853981 11.607446,19.581158 0 0 1 12.25845,12.853981 h 4.78363 A 15.900612,20.333201 0 0 0 124.73686,85.265755 Z m 15.96612,17.196385 v 0.12152 h 0.008 z"
             style="opacity:1;fill:#000000;fill-opacity:1;stroke:#000000;stroke-width:0.1275523;stroke-linejoin:round;stroke-miterlimit:4;stroke-dasharray:none;stroke-opacity:1" />
          <path
             inkscape:connector-curvature="0"
             id="path861-5"
             d="m 165.00849,85.265753 a 15.900612,20.333201 0 0 0 -1.58612,0.13394 15.900612,20.333201 0 0 0 -13.85101,17.062447 h 4.78705 a 11.607446,19.581158 0 0 1 9.57412,-12.853987 11.607446,19.581158 0 0 1 12.25845,12.853987 h 4.78363 A 15.900612,20.333201 0 0 0 165.00849,85.265753 Z m 15.96612,17.196387 v 0.12152 h 0.008 z"
             style="opacity:1;fill:#000000;fill-opacity:1;stroke:#000000;stroke-width:0.1275523;stroke-linejoin:round;stroke-miterlimit:4;stroke-dasharray:none;stroke-opacity:1" />
        </g>
        <g
           id="g918"
           transform="translate(4.2477844)">
          <path
             inkscape:connector-curvature="0"
             id="path935"
             d="m 137.31077,110.26659 16.25298,-0.37797 -7.9375,9.07143 z"
             style="fill:#000000;stroke:#000000;stroke-width:0.26458332px;stroke-linecap:butt;stroke-linejoin:miter;stroke-opacity:1" />
          <path
             inkscape:connector-curvature="0"
             id="path861-0"
             d="m 145.67313,142.01082 a 13.698247,20.633131 89.834171 0 0 2.05901,-0.085 13.698247,20.633131 89.834171 0 0 18.08177,-11.44895 l -6.21169,-0.0159 a 13.190817,15.063084 88.844035 0 1 -12.50526,8.62793 13.190817,15.063084 88.844035 0 1 -15.82475,-8.70009 l -6.20724,-0.0159 a 13.698247,20.633131 89.834171 0 0 20.60816,11.63777 z m -20.60816,-11.63777 7.7e-4,-0.0819 -0.0104,-3e-5 z"
             style="opacity:1;fill:#000000;fill-opacity:1;stroke:#000000;stroke-width:0.11925966;stroke-linejoin:round;stroke-miterlimit:4;stroke-dasharray:none;stroke-opacity:1" />
        </g>
      </g>
    </g>
  </g>
</svg>
