<?xml version="1.0" encoding="UTF-8" standalone="no"?>
<!-- Created with Inkscape (http://www.inkscape.org/) -->

<svg
   xmlns:dc="http://purl.org/dc/elements/1.1/"
   xmlns:cc="http://creativecommons.org/ns#"
   xmlns:rdf="http://www.w3.org/1999/02/22-rdf-syntax-ns#"
   xmlns:svg="http://www.w3.org/2000/svg"
   xmlns="http://www.w3.org/2000/svg"
   xmlns:sodipodi="http://sodipodi.sourceforge.net/DTD/sodipodi-0.dtd"
   xmlns:inkscape="http://www.inkscape.org/namespaces/inkscape"
   width="210mm"
   height="297mm"
   viewBox="0 0 210 297"
   version="1.1"
   id="svg8"
   inkscape:version="0.92.4 (5da689c313, 2019-01-14)"
   sodipodi:docname="えさタンポポ画像.svg">
  <defs
     id="defs2" />
  <sodipodi:namedview
     id="base"
     pagecolor="#ffffff"
     bordercolor="#666666"
     borderopacity="1.0"
     inkscape:pageopacity="0.0"
     inkscape:pageshadow="2"
     inkscape:zoom="1.4"
     inkscape:cx="382.08484"
     inkscape:cy="786.35412"
     inkscape:document-units="mm"
     inkscape:current-layer="layer1"
     showgrid="false"
     inkscape:snap-global="false" />
  <metadata
     id="metadata5">
    <rdf:RDF>
      <cc:Work
         rdf:about="">
        <dc:format>image/svg+xml</dc:format>
        <dc:type
           rdf:resource="http://purl.org/dc/dcmitype/StillImage" />
        <dc:title></dc:title>
      </cc:Work>
    </rdf:RDF>
  </metadata>
  <g
     inkscape:label="レイヤー 1"
     inkscape:groupmode="layer"
     id="layer1">
    <g
       id="g4699"
       transform="translate(17.575892,49.892858)">
      <g
         transform="translate(0.94494048,0.1889881)"
         id="g4662">
        <path
           style="fill:#00ff00;stroke:#00ff00;stroke-width:0.26458332px;stroke-linecap:butt;stroke-linejoin:miter;stroke-opacity:1"
           d="m 120.76551,46.602144 c -4.0848,-1.338425 -10.59184,1.461959 -12.20599,2.807303 l 1.95444,3.535909 c -4.09879,-2.582267 -7.12298,-1.16851 -9.1998,-0.763427 1.76645,1.566723 4.3667,2.514625 4.99539,4.925767 l -1.26011,1.009646 c -3.47412,-3.531959 -7.192037,-3.901464 -9.903153,-3.516098 1.828425,2.358841 4.004558,3.467651 5.401423,7.378137 -4.483182,-1.620764 -8.827495,-1.823128 -8.243022,-0.878143 2.979397,1.078555 3.083339,3.099603 3.800166,4.919755 L 93.776216,65.590944 82.116779,78.560877 c 4.666008,-0.597314 12.233712,-3.39005 16.831426,-7.505403 0.65696,0.909154 1.455665,-0.400488 1.957435,2.938276 l 2.48543,-6.979895 c 0.9138,1.083008 1.85563,1.499592 2.5959,6.70662 1.98839,-2.815046 3.3541,-6.119433 2.50645,-11.163262 3.00516,-0.318999 2.14725,3.186447 3.02295,4.975603 0.90562,-2.328792 4.56371,-2.718222 1.95568,-8.596185 l 1.80752,-2.979333 3.03194,3.182753 c -0.32993,-4.220496 5.06337,-7.397401 2.45362,-12.538117 z"
           id="path4632-7"
           inkscape:connector-curvature="0"
           sodipodi:nodetypes="cccccccccccccccccccccc" />
        <path
           style="fill:#00ff00;stroke:#00ff00;stroke-width:0.26458332px;stroke-linecap:butt;stroke-linejoin:miter;stroke-opacity:1"
           d="m 35.523914,61.954479 c 0.973271,4.186859 6.741453,8.299222 8.72873,8.981998 l 2.010304,-3.504445 c -0.08307,4.843698 2.693705,6.696733 4.116821,8.262643 0.423905,-2.322776 -0.113639,-5.03772 1.622207,-6.825372 l 1.516668,0.554083 c -1.219049,4.801899 0.392521,8.172677 2.127628,10.291194 1.069123,-2.786458 0.889062,-5.222131 3.508743,-8.443994 0.938373,4.673885 3.017629,8.49366 3.522673,7.503949 -0.622356,-3.106891 1.051951,-4.243575 2.236738,-5.800195 l 0.839539,2.214196 17.135528,3.245838 c -2.929856,-3.680266 -9.24142,-8.703586 -15.144172,-10.501532 0.436818,-1.033124 -1.097139,-1.037104 1.497716,-3.19717 l -7.257138,1.493412 c 0.452338,-1.342877 0.320271,-2.364221 4.389046,-5.696813 -3.438041,-0.240832 -6.971708,0.304493 -10.845268,3.644298 -1.830801,-2.404366 1.611519,-3.488145 2.687445,-5.164554 -2.460892,0.432955 -4.690429,-2.493207 -8.364595,2.78437 l -3.484764,-0.0014 1.149688,-4.242738 c -3.437924,2.470244 -8.950667,-0.49455 -11.993518,4.402271 z"
           id="path4632"
           inkscape:connector-curvature="0"
           sodipodi:nodetypes="cccccccccccccccccccccc" />
        <path
           style="fill:#00ff00;stroke:#00ff00;stroke-width:0.26458332px;stroke-linecap:butt;stroke-linejoin:miter;stroke-opacity:1"
           d="m 77.862792,27.640875 c 0.05751,17.917147 0.444021,35.608954 3.802308,51.265336 l 3.217526,-0.07283 C 81.272915,60.712164 81.05814,43.955833 80.469139,27.04905 Z"
           id="path866"
           inkscape:connector-curvature="0"
           sodipodi:nodetypes="ccccc" />
      </g>
      <g
         style="stroke:#ffff00"
         transform="translate(-10.016369,-18.520834)"
         id="g864">
        <rect
           style="opacity:1;fill:#ffff00;fill-opacity:1;stroke:#ffff00;stroke-width:0.1;stroke-linejoin:round;stroke-miterlimit:4;stroke-dasharray:none;stroke-opacity:1"
           id="rect815"
           width="5.6696429"
           height="42.711311"
           x="87.312508"
           y="22.211311" />
        <rect
           style="opacity:1;fill:#ffff00;fill-opacity:1;stroke:#ffff00;stroke-width:0.1;stroke-linejoin:round;stroke-miterlimit:4;stroke-dasharray:none;stroke-opacity:1"
           id="rect815-2"
           width="5.6696429"
           height="42.711311"
           x="53.966251"
           y="60.705906"
           transform="rotate(-29.397067)" />
        <rect
           style="opacity:1;fill:#ffff00;fill-opacity:1;stroke:#ffff00;stroke-width:0.1;stroke-linejoin:round;stroke-miterlimit:4;stroke-dasharray:none;stroke-opacity:1"
           id="rect815-3"
           width="5.6696429"
           height="42.711311"
           x="96.711098"
           y="-25.154766"
           transform="rotate(27.878304)" />
        <rect
           style="opacity:1;fill:#ffff00;fill-opacity:1;stroke:#ffff00;stroke-width:0.1;stroke-linejoin:round;stroke-miterlimit:4;stroke-dasharray:none;stroke-opacity:1"
           id="rect815-9"
           width="5.6696429"
           height="42.711311"
           x="85.344833"
           y="-68.431938"
           transform="rotate(53.6951)" />
        <rect
           style="opacity:1;fill:#ffff00;fill-opacity:1;stroke:#ffff00;stroke-width:0.1;stroke-linejoin:round;stroke-miterlimit:4;stroke-dasharray:none;stroke-opacity:1"
           id="rect815-33"
           width="5.6696429"
           height="42.711311"
           x="7.5132866"
           y="78.060135"
           transform="rotate(-58.216549)" />
        <rect
           style="opacity:1;fill:#ffff00;fill-opacity:1;stroke:#ffff00;stroke-width:0.1;stroke-linejoin:round;stroke-miterlimit:4;stroke-dasharray:none;stroke-opacity:1"
           id="rect815-8"
           width="5.6696429"
           height="42.711311"
           x="-46.416847"
           y="68.50399"
           transform="rotate(-90.130032)" />
      </g>
    </g>
  </g>
</svg>
