<?xml version="1.0" encoding="UTF-8" standalone="no"?>
<!-- Created with Inkscape (http://www.inkscape.org/) -->

<svg
   xmlns:dc="http://purl.org/dc/elements/1.1/"
   xmlns:cc="http://creativecommons.org/ns#"
   xmlns:rdf="http://www.w3.org/1999/02/22-rdf-syntax-ns#"
   xmlns:svg="http://www.w3.org/2000/svg"
   xmlns="http://www.w3.org/2000/svg"
   xmlns:xlink="http://www.w3.org/1999/xlink"
   xmlns:sodipodi="http://sodipodi.sourceforge.net/DTD/sodipodi-0.dtd"
   xmlns:inkscape="http://www.inkscape.org/namespaces/inkscape"
   width="210mm"
   height="297mm"
   viewBox="0 0 210 297"
   version="1.1"
   id="svg8"
   inkscape:version="0.92.4 (5da689c313, 2019-01-14)"
   sodipodi:docname="えさ人参画像.svg">
  <defs
     id="defs2">
    <linearGradient
       inkscape:collect="always"
       id="linearGradient889">
      <stop
         style="stop-color:#ff6600;stop-opacity:1"
         offset="0"
         id="stop885" />
      <stop
         style="stop-color:#333333;stop-opacity:1"
         offset="1"
         id="stop887" />
    </linearGradient>
    <linearGradient
       inkscape:collect="always"
       xlink:href="#linearGradient889"
       id="linearGradient891"
       x1="105.30419"
       y1="135.5692"
       x2="149.1364"
       y2="207.73198"
       gradientUnits="userSpaceOnUse" />
  </defs>
  <sodipodi:namedview
     id="base"
     pagecolor="#ffffff"
     bordercolor="#666666"
     borderopacity="1.0"
     inkscape:pageopacity="0.0"
     inkscape:pageshadow="2"
     inkscape:zoom="0.98994949"
     inkscape:cx="376.01054"
     inkscape:cy="686.52535"
     inkscape:document-units="mm"
     inkscape:current-layer="layer1"
     showgrid="false"
     inkscape:snap-global="false" />
  <metadata
     id="metadata5">
    <rdf:RDF>
      <cc:Work
         rdf:about="">
        <dc:format>image/svg+xml</dc:format>
        <dc:type
           rdf:resource="http://purl.org/dc/dcmitype/StillImage" />
        <dc:title></dc:title>
      </cc:Work>
    </rdf:RDF>
  </metadata>
  <g
     inkscape:label="レイヤー 1"
     inkscape:groupmode="layer"
     id="layer1">
    <g
       id="g875">
      <rect
         transform="rotate(40.493159)"
         y="-36.129612"
         x="145.00912"
         height="44.601189"
         width="9.8273811"
         id="rect821-7"
         style="opacity:1;fill:#008000;fill-opacity:1;stroke:#000000;stroke-width:0.1;stroke-linejoin:round;stroke-miterlimit:4;stroke-dasharray:none;stroke-opacity:1" />
      <rect
         transform="rotate(50.938406)"
         y="-63.702488"
         x="160.00459"
         height="44.601189"
         width="9.8273811"
         id="rect821-8"
         style="opacity:1;fill:#008000;fill-opacity:1;stroke:#000000;stroke-width:0.1;stroke-linejoin:round;stroke-miterlimit:4;stroke-dasharray:none;stroke-opacity:1" />
      <rect
         transform="rotate(20.199405)"
         y="13.587978"
         x="123.87854"
         height="44.601189"
         width="9.8273811"
         id="rect821"
         style="opacity:1;fill:#008000;fill-opacity:1;stroke:#000000;stroke-width:0.1;stroke-linejoin:round;stroke-miterlimit:4;stroke-dasharray:none;stroke-opacity:1" />
    </g>
    <path
       sodipodi:nodetypes="ccccssssccccccccccccccccccccc"
       inkscape:connector-curvature="0"
       id="path815"
       d="m 80.130953,80.041666 c 1.879339,-5.283311 5.479493,-8.089417 10.089108,-8.989057 4.036071,-0.787703 8.84603,-0.113843 13.952379,1.638476 4.14148,1.421209 8.47793,3.551822 12.75459,6.187451 3.93103,2.422619 7.81156,5.271923 11.44374,8.389183 3.65378,3.135801 7.05626,6.542755 10.00604,10.059283 3.25,3.874428 5.95047,7.881878 7.83206,11.806228 2.31821,4.83498 3.3934,9.54384 2.72187,13.72242 -0.69812,4.344 -3.284,8.1149 -8.3236,10.85864 l -11.49055,7.18159 -11.49127,7.18205 -11.49098,7.18186 -11.490273,7.18142 -11.490153,7.18134 -11.490532,7.18159 -11.490277,7.18142 -11.489971,7.18123 -11.490731,7.18171 -11.490022,7.18126 c -4.661204,2.46307 -8.323466,3.65475 -5.247889,-3.729 l 7.046852,-15.75691 6.512171,-13.61843 6.244572,-12.28132 4.640895,-10.94484 6.511962,-14.15249 6.511841,-13.61767 7.580775,-13.88461 7.046594,-13.618162 7.580799,-13.884662"
       style="fill:url(#linearGradient891);stroke:#000000;stroke-width:0.26458332px;stroke-linecap:butt;stroke-linejoin:miter;stroke-opacity:1;fill-opacity:1" />
    <path
       id="rect895-3"
       d="m 176.27724,106.89122 c 2.59711,-0.75667 5.20763,-2.03443 7.75422,-1.8866 4.15956,0.59245 6.49198,2.55109 9.19214,2.9938 l -0.71158,-0.01 c -2.77277,-0.40083 -2.85573,-0.93747 -8.18961,-2.11859 -2.84605,-0.0431 -5.38419,0.75816 -8.03287,1.2563 l 0.11015,0.10051"
       inkscape:transform-center-y="1.8040777"
       inkscape:transform-center-x="0.7349912"
       style="opacity:1;fill:#f9f9f9;fill-opacity:1;stroke:#000000;stroke-width:0.0223672;stroke-linejoin:round;stroke-miterlimit:4;stroke-dasharray:none;stroke-opacity:1"
       transform="matrix(0.86210329,0.50673259,-0.91116998,0.41203067,0,0)"
       inkscape:connector-curvature="0"
       sodipodi:nodetypes="ccccccc" />
    <path
       id="rect895-3-5"
       d="m 85.867111,141.88018 c 3.815272,1.89265 8.310112,3.54173 10.915902,5.83342 3.808407,3.91511 3.868747,6.90717 6.266797,9.47713 l -0.76805,-0.62501 c -2.531167,-2.61274 -1.9375,-2.94791 -6.283417,-8.17477 -3.06799,-2.50135 -6.87546,-4.32077 -10.417457,-6.38499 l -0.0073,0.14517"
       inkscape:transform-center-y="2.6002052"
       inkscape:transform-center-x="1.2195477"
       style="opacity:1;fill:#f9f9f9;fill-opacity:1;stroke:#000000;stroke-width:0.02872612;stroke-linejoin:round;stroke-miterlimit:4;stroke-dasharray:none;stroke-opacity:1"
       inkscape:connector-curvature="0"
       sodipodi:nodetypes="ccccccc" />
    <path
       id="rect895-3-2"
       d="m 77.923472,112.61647 c 5.134762,2.66385 11.122312,4.7762 14.735632,8.36068 5.34118,6.23843 5.73768,11.5141 9.112006,15.62728 l -1.05966,-0.96737 c -3.551006,-4.16501 -2.819036,-4.86302 -8.994836,-13.32325 -4.23331,-3.87252 -9.35018,-6.40835 -14.149857,-9.42408 l 0.006,0.25783"
       inkscape:transform-center-y="4.7853461"
       inkscape:transform-center-x="1.2887444"
       style="opacity:1;fill:#f9f9f9;fill-opacity:1;stroke:#000000;stroke-width:0.04359899;stroke-linejoin:round;stroke-miterlimit:4;stroke-dasharray:none;stroke-opacity:1"
       inkscape:connector-curvature="0"
       sodipodi:nodetypes="ccccccc" />
    <path
       id="rect895-3-23"
       d="m 76.83927,86.955481 c 4.966107,1.952255 10.757012,3.500343 14.251634,6.127303 5.16574,4.57197 5.549217,8.438366 8.812732,11.452786 l -1.024872,-0.70896 c -3.43437,-3.0524 -2.726447,-3.56395 -8.6994,-9.764206 -4.094266,-2.838077 -9.043059,-4.696517 -13.685093,-6.906657 l 0.0051,0.188953"
       inkscape:transform-center-y="3.5070465"
       inkscape:transform-center-x="1.2464168"
       style="opacity:1;fill:#f9f9f9;fill-opacity:1;stroke:#000000;stroke-width:0.03670611;stroke-linejoin:round;stroke-miterlimit:4;stroke-dasharray:none;stroke-opacity:1"
       inkscape:connector-curvature="0"
       sodipodi:nodetypes="ccccccc" />
  </g>
</svg>
